<svg viewBox="0 0 160 160" xmlns="http://www.w3.org/2000/svg">
<rect width="160" height="160" fill="#060c1a"/>
<circle cx="80" cy="80" r="68" fill="#060c1a" stroke="rgba(0,229,255,0.15)" stroke-width="2"/>
<path d="M 80 12 A 68 68 0 1 1 12.1 97" fill="none" stroke="#FF6D00" stroke-width="9" stroke-linecap="round"/>
<path d="M 80 22 A 58 58 0 1 0 24.5 107" fill="none" stroke="#00E5FF" stroke-width="7" stroke-linecap="round"/>
<path d="M 80 28 A 52 52 0 0 1 126 54" fill="none" stroke="#ff00aa" stroke-width="5" stroke-linecap="round"/>
<line x1="80" y1="80" x2="52" y2="52" stroke="#00E5FF" stroke-width="2" opacity="0.6"/>
<line x1="80" y1="80" x2="108" y2="52" stroke="#FF6D00" stroke-width="2" opacity="0.6"/>
<line x1="80" y1="80" x2="44" y2="88" stroke="#ff00aa" stroke-width="2" opacity="0.5"/>
<line x1="80" y1="80" x2="116" y2="88" stroke="#FF6D00" stroke-width="2" opacity="0.5"/>
<line x1="80" y1="80" x2="58" y2="112" stroke="#39ff14" stroke-width="2" opacity="0.5"/>
<line x1="80" y1="80" x2="102" y2="112" stroke="#00E5FF" stroke-width="2" opacity="0.5"/>
<circle cx="52" cy="52" r="7" fill="#00E5FF"/>
<circle cx="108" cy="52" r="7" fill="#FF6D00"/>
<circle cx="44" cy="88" r="5.5" fill="#ff00aa"/>
<circle cx="116" cy="88" r="5.5" fill="#FF6D00"/>
<circle cx="58" cy="112" r="6" fill="#39ff14"/>
<circle cx="102" cy="112" r="6" fill="#00E5FF"/>
<text x="80" y="100" text-anchor="middle" font-family="Arial Black, Arial, sans-serif" font-size="74" font-weight="900" fill="#FF6D00">S</text>
</svg>