<svg viewBox="0 0 512 512" xmlns="http://www.w3.org/2000/svg">
<rect width="512" height="512" fill="#060c1a" rx="80"/>
<circle cx="256" cy="256" r="200" fill="#060c1a" stroke="rgba(0,229,255,0.15)" stroke-width="3"/>
<path d="M 256 56 A 200 200 0 1 1 56.3 306" fill="none" stroke="#FF6D00" stroke-width="18" stroke-linecap="round"/>
<path d="M 256 86 A 170 170 0 1 0 88 326" fill="none" stroke="#00E5FF" stroke-width="12" stroke-linecap="round"/>
<path d="M 256 106 A 150 150 0 0 1 374 168" fill="none" stroke="#ff00aa" stroke-width="8" stroke-linecap="round"/>
<line x1="256" y1="256" x2="172" y2="172" stroke="#00E5FF" stroke-width="3" opacity="0.6"/>
<line x1="256" y1="256" x2="340" y2="172" stroke="#FF6D00" stroke-width="3" opacity="0.6"/>
<line x1="256" y1="256" x2="148" y2="284" stroke="#ff00aa" stroke-width="3" opacity="0.5"/>
<line x1="256" y1="256" x2="364" y2="284" stroke="#FF6D00" stroke-width="3" opacity="0.5"/>
<line x1="256" y1="256" x2="188" y2="356" stroke="#39ff14" stroke-width="3" opacity="0.5"/>
<line x1="256" y1="256" x2="324" y2="356" stroke="#00E5FF" stroke-width="3" opacity="0.5"/>
<circle cx="172" cy="172" r="14" fill="#00E5FF"/>
<circle cx="340" cy="172" r="14" fill="#FF6D00"/>
<circle cx="148" cy="284" r="11" fill="#ff00aa"/>
<circle cx="364" cy="284" r="11" fill="#FF6D00"/>
<circle cx="188" cy="356" r="12" fill="#39ff14"/>
<circle cx="324" cy="356" r="12" fill="#00E5FF"/>
<text x="256" y="290" text-anchor="middle" font-family="Arial Black,sans-serif" font-size="140" font-weight="900" fill="#FF6D00">S</text>
</svg>